<mxfile host="app.diagrams.net" agent="Mozilla/5.0 (Windows NT 10.0; Win64; x64; rv:136.0) Gecko/20100101 Firefox/136.0" version="26.1.1">
  <diagram id="C5RBs43oDa-KdzZeNtuy" name="Page-1">
    <mxGraphModel dx="2055" dy="867" grid="1" gridSize="10" guides="1" tooltips="1" connect="1" arrows="1" fold="1" page="1" pageScale="1" pageWidth="827" pageHeight="1169" math="0" shadow="0">
      <root>
        <mxCell id="WIyWlLk6GJQsqaUBKTNV-0" />
        <mxCell id="WIyWlLk6GJQsqaUBKTNV-1" parent="WIyWlLk6GJQsqaUBKTNV-0" />
        <mxCell id="LJVNO1VC9h9MHGK4wsLx-11" style="edgeStyle=orthogonalEdgeStyle;rounded=0;orthogonalLoop=1;jettySize=auto;html=1;entryX=0;entryY=0.5;entryDx=0;entryDy=0;" edge="1" parent="WIyWlLk6GJQsqaUBKTNV-1" source="LJVNO1VC9h9MHGK4wsLx-2" target="LJVNO1VC9h9MHGK4wsLx-4">
          <mxGeometry relative="1" as="geometry" />
        </mxCell>
        <mxCell id="LJVNO1VC9h9MHGK4wsLx-14" value="N" style="edgeLabel;html=1;align=center;verticalAlign=middle;resizable=0;points=[];" vertex="1" connectable="0" parent="LJVNO1VC9h9MHGK4wsLx-11">
          <mxGeometry x="-0.2333" y="-3" relative="1" as="geometry">
            <mxPoint x="-9" y="-3" as="offset" />
          </mxGeometry>
        </mxCell>
        <mxCell id="LJVNO1VC9h9MHGK4wsLx-2" value="&lt;div&gt;Is the DB&lt;/div&gt;&lt;div&gt;initialized?&lt;/div&gt;" style="strokeWidth=2;html=1;shape=mxgraph.flowchart.decision;whiteSpace=wrap;" vertex="1" parent="WIyWlLk6GJQsqaUBKTNV-1">
          <mxGeometry x="30" y="165" width="100" height="50" as="geometry" />
        </mxCell>
        <mxCell id="LJVNO1VC9h9MHGK4wsLx-3" value="&lt;div&gt;&lt;br&gt;&lt;/div&gt;&lt;div&gt;keychain&lt;/div&gt;" style="strokeWidth=2;html=1;shape=mxgraph.flowchart.database;whiteSpace=wrap;" vertex="1" parent="WIyWlLk6GJQsqaUBKTNV-1">
          <mxGeometry x="-100" y="320" width="100" height="50" as="geometry" />
        </mxCell>
        <mxCell id="LJVNO1VC9h9MHGK4wsLx-23" style="edgeStyle=orthogonalEdgeStyle;rounded=0;orthogonalLoop=1;jettySize=auto;html=1;entryX=0.5;entryY=0;entryDx=0;entryDy=0;" edge="1" parent="WIyWlLk6GJQsqaUBKTNV-1" source="LJVNO1VC9h9MHGK4wsLx-4" target="LJVNO1VC9h9MHGK4wsLx-16">
          <mxGeometry relative="1" as="geometry" />
        </mxCell>
        <mxCell id="LJVNO1VC9h9MHGK4wsLx-4" value="&lt;div&gt;Perform first-time&lt;/div&gt;&lt;div&gt;DB setup&lt;/div&gt;" style="rounded=1;whiteSpace=wrap;html=1;absoluteArcSize=1;arcSize=14;strokeWidth=2;" vertex="1" parent="WIyWlLk6GJQsqaUBKTNV-1">
          <mxGeometry x="160" y="165" width="100" height="50" as="geometry" />
        </mxCell>
        <mxCell id="LJVNO1VC9h9MHGK4wsLx-5" value="START" style="strokeWidth=2;html=1;shape=mxgraph.flowchart.annotation_2;align=left;labelPosition=right;pointerEvents=1;" vertex="1" parent="WIyWlLk6GJQsqaUBKTNV-1">
          <mxGeometry x="110" y="20" width="20" height="40" as="geometry" />
        </mxCell>
        <mxCell id="LJVNO1VC9h9MHGK4wsLx-8" style="edgeStyle=orthogonalEdgeStyle;rounded=0;orthogonalLoop=1;jettySize=auto;html=1;exitX=0.5;exitY=1;exitDx=0;exitDy=0;exitPerimeter=0;entryX=0.5;entryY=0;entryDx=0;entryDy=0;" edge="1" parent="WIyWlLk6GJQsqaUBKTNV-1" source="LJVNO1VC9h9MHGK4wsLx-6" target="LJVNO1VC9h9MHGK4wsLx-7">
          <mxGeometry relative="1" as="geometry" />
        </mxCell>
        <mxCell id="LJVNO1VC9h9MHGK4wsLx-6" value="" style="verticalLabelPosition=bottom;verticalAlign=top;html=1;shape=mxgraph.flowchart.on-page_reference;" vertex="1" parent="WIyWlLk6GJQsqaUBKTNV-1">
          <mxGeometry x="70" y="30" width="20" height="20" as="geometry" />
        </mxCell>
        <mxCell id="LJVNO1VC9h9MHGK4wsLx-7" value="&lt;div&gt;Display&lt;/div&gt;&lt;div&gt;welcome screen&lt;/div&gt;" style="rounded=1;whiteSpace=wrap;html=1;absoluteArcSize=1;arcSize=14;strokeWidth=2;" vertex="1" parent="WIyWlLk6GJQsqaUBKTNV-1">
          <mxGeometry x="30" y="80" width="100" height="50" as="geometry" />
        </mxCell>
        <mxCell id="LJVNO1VC9h9MHGK4wsLx-9" style="edgeStyle=orthogonalEdgeStyle;rounded=0;orthogonalLoop=1;jettySize=auto;html=1;entryX=0.5;entryY=0;entryDx=0;entryDy=0;entryPerimeter=0;" edge="1" parent="WIyWlLk6GJQsqaUBKTNV-1" source="LJVNO1VC9h9MHGK4wsLx-7" target="LJVNO1VC9h9MHGK4wsLx-2">
          <mxGeometry relative="1" as="geometry" />
        </mxCell>
        <mxCell id="LJVNO1VC9h9MHGK4wsLx-17" value="N" style="edgeStyle=orthogonalEdgeStyle;rounded=0;orthogonalLoop=1;jettySize=auto;html=1;entryX=0;entryY=0.5;entryDx=0;entryDy=0;" edge="1" parent="WIyWlLk6GJQsqaUBKTNV-1" source="LJVNO1VC9h9MHGK4wsLx-12" target="LJVNO1VC9h9MHGK4wsLx-16">
          <mxGeometry x="-0.3333" relative="1" as="geometry">
            <Array as="points">
              <mxPoint x="130" y="265" />
              <mxPoint x="130" y="265" />
            </Array>
            <mxPoint as="offset" />
          </mxGeometry>
        </mxCell>
        <mxCell id="LJVNO1VC9h9MHGK4wsLx-19" style="edgeStyle=orthogonalEdgeStyle;rounded=0;orthogonalLoop=1;jettySize=auto;html=1;entryX=0.5;entryY=0;entryDx=0;entryDy=0;" edge="1" parent="WIyWlLk6GJQsqaUBKTNV-1" source="LJVNO1VC9h9MHGK4wsLx-12" target="LJVNO1VC9h9MHGK4wsLx-18">
          <mxGeometry relative="1" as="geometry" />
        </mxCell>
        <mxCell id="LJVNO1VC9h9MHGK4wsLx-22" value="Y" style="edgeLabel;html=1;align=center;verticalAlign=middle;resizable=0;points=[];" vertex="1" connectable="0" parent="LJVNO1VC9h9MHGK4wsLx-19">
          <mxGeometry x="-0.6286" relative="1" as="geometry">
            <mxPoint as="offset" />
          </mxGeometry>
        </mxCell>
        <mxCell id="LJVNO1VC9h9MHGK4wsLx-12" value="&lt;div&gt;Is there a reg&#39;d&lt;/div&gt;&lt;div&gt;Agent?&lt;/div&gt;" style="strokeWidth=2;html=1;shape=mxgraph.flowchart.decision;whiteSpace=wrap;" vertex="1" parent="WIyWlLk6GJQsqaUBKTNV-1">
          <mxGeometry x="30" y="240" width="100" height="50" as="geometry" />
        </mxCell>
        <mxCell id="LJVNO1VC9h9MHGK4wsLx-13" style="edgeStyle=orthogonalEdgeStyle;rounded=0;orthogonalLoop=1;jettySize=auto;html=1;entryX=0.5;entryY=0;entryDx=0;entryDy=0;entryPerimeter=0;" edge="1" parent="WIyWlLk6GJQsqaUBKTNV-1" source="LJVNO1VC9h9MHGK4wsLx-2" target="LJVNO1VC9h9MHGK4wsLx-12">
          <mxGeometry relative="1" as="geometry" />
        </mxCell>
        <mxCell id="LJVNO1VC9h9MHGK4wsLx-15" value="Y" style="edgeLabel;html=1;align=center;verticalAlign=middle;resizable=0;points=[];" vertex="1" connectable="0" parent="LJVNO1VC9h9MHGK4wsLx-13">
          <mxGeometry x="0.4687" relative="1" as="geometry">
            <mxPoint y="-1" as="offset" />
          </mxGeometry>
        </mxCell>
        <mxCell id="LJVNO1VC9h9MHGK4wsLx-21" style="edgeStyle=orthogonalEdgeStyle;rounded=0;orthogonalLoop=1;jettySize=auto;html=1;entryX=1;entryY=0.5;entryDx=0;entryDy=0;" edge="1" parent="WIyWlLk6GJQsqaUBKTNV-1" source="LJVNO1VC9h9MHGK4wsLx-16" target="LJVNO1VC9h9MHGK4wsLx-18">
          <mxGeometry relative="1" as="geometry">
            <Array as="points">
              <mxPoint x="210" y="345" />
            </Array>
          </mxGeometry>
        </mxCell>
        <mxCell id="LJVNO1VC9h9MHGK4wsLx-16" value="&lt;div&gt;Require new&lt;/div&gt;&lt;div&gt;Agent registration&lt;/div&gt;" style="rounded=1;whiteSpace=wrap;html=1;absoluteArcSize=1;arcSize=14;strokeWidth=2;" vertex="1" parent="WIyWlLk6GJQsqaUBKTNV-1">
          <mxGeometry x="160" y="240" width="100" height="50" as="geometry" />
        </mxCell>
        <mxCell id="LJVNO1VC9h9MHGK4wsLx-18" value="&lt;div&gt;Load all reg&#39;d&lt;/div&gt;&lt;div&gt;Agents&lt;/div&gt;" style="rounded=1;whiteSpace=wrap;html=1;absoluteArcSize=1;arcSize=14;strokeWidth=2;" vertex="1" parent="WIyWlLk6GJQsqaUBKTNV-1">
          <mxGeometry x="30" y="320" width="100" height="50" as="geometry" />
        </mxCell>
        <mxCell id="LJVNO1VC9h9MHGK4wsLx-25" style="edgeStyle=orthogonalEdgeStyle;rounded=0;orthogonalLoop=1;jettySize=auto;html=1;entryX=1;entryY=0.5;entryDx=0;entryDy=0;entryPerimeter=0;dashed=1;" edge="1" parent="WIyWlLk6GJQsqaUBKTNV-1" source="LJVNO1VC9h9MHGK4wsLx-18" target="LJVNO1VC9h9MHGK4wsLx-3">
          <mxGeometry relative="1" as="geometry" />
        </mxCell>
        <mxCell id="LJVNO1VC9h9MHGK4wsLx-31" style="edgeStyle=orthogonalEdgeStyle;rounded=0;orthogonalLoop=1;jettySize=auto;html=1;entryX=0.5;entryY=0;entryDx=0;entryDy=0;" edge="1" parent="WIyWlLk6GJQsqaUBKTNV-1" source="LJVNO1VC9h9MHGK4wsLx-27" target="LJVNO1VC9h9MHGK4wsLx-30">
          <mxGeometry relative="1" as="geometry" />
        </mxCell>
        <mxCell id="LJVNO1VC9h9MHGK4wsLx-32" value="Y" style="edgeLabel;html=1;align=center;verticalAlign=middle;resizable=0;points=[];" vertex="1" connectable="0" parent="LJVNO1VC9h9MHGK4wsLx-31">
          <mxGeometry x="-0.6028" y="-1" relative="1" as="geometry">
            <mxPoint as="offset" />
          </mxGeometry>
        </mxCell>
        <mxCell id="LJVNO1VC9h9MHGK4wsLx-27" value="&lt;div&gt;Any waiting&lt;/div&gt;&lt;div&gt;inputs?&lt;/div&gt;" style="strokeWidth=2;html=1;shape=mxgraph.flowchart.decision;whiteSpace=wrap;" vertex="1" parent="WIyWlLk6GJQsqaUBKTNV-1">
          <mxGeometry x="30" y="400" width="100" height="50" as="geometry" />
        </mxCell>
        <mxCell id="LJVNO1VC9h9MHGK4wsLx-28" style="edgeStyle=orthogonalEdgeStyle;rounded=0;orthogonalLoop=1;jettySize=auto;html=1;entryX=0.5;entryY=0;entryDx=0;entryDy=0;entryPerimeter=0;" edge="1" parent="WIyWlLk6GJQsqaUBKTNV-1" source="LJVNO1VC9h9MHGK4wsLx-18" target="LJVNO1VC9h9MHGK4wsLx-27">
          <mxGeometry relative="1" as="geometry" />
        </mxCell>
        <mxCell id="LJVNO1VC9h9MHGK4wsLx-30" value="&lt;div&gt;Parse inputs&lt;/div&gt;&lt;div&gt;into Actions&lt;/div&gt;" style="rounded=1;whiteSpace=wrap;html=1;absoluteArcSize=1;arcSize=14;strokeWidth=2;" vertex="1" parent="WIyWlLk6GJQsqaUBKTNV-1">
          <mxGeometry x="30" y="480" width="100" height="50" as="geometry" />
        </mxCell>
        <mxCell id="LJVNO1VC9h9MHGK4wsLx-36" value="&lt;div&gt;subroutines for parsing inputs to actions&lt;/div&gt;&lt;div&gt;have been created in previous versions&lt;/div&gt;" style="strokeWidth=2;html=1;shape=mxgraph.flowchart.annotation_2;align=right;labelPosition=left;pointerEvents=1;flipH=1;verticalLabelPosition=middle;verticalAlign=middle;" vertex="1" parent="WIyWlLk6GJQsqaUBKTNV-1">
          <mxGeometry x="-10" y="480" width="20" height="40" as="geometry" />
        </mxCell>
        <mxCell id="LJVNO1VC9h9MHGK4wsLx-46" value="N" style="edgeStyle=orthogonalEdgeStyle;rounded=0;orthogonalLoop=1;jettySize=auto;html=1;entryX=0;entryY=0.5;entryDx=0;entryDy=0;" edge="1" parent="WIyWlLk6GJQsqaUBKTNV-1" source="LJVNO1VC9h9MHGK4wsLx-40" target="LJVNO1VC9h9MHGK4wsLx-45">
          <mxGeometry relative="1" as="geometry" />
        </mxCell>
        <mxCell id="LJVNO1VC9h9MHGK4wsLx-40" value="&lt;div&gt;Is the A.&lt;/div&gt;&lt;div&gt;&quot;valid&quot;?&lt;/div&gt;" style="strokeWidth=2;html=1;shape=mxgraph.flowchart.decision;whiteSpace=wrap;" vertex="1" parent="WIyWlLk6GJQsqaUBKTNV-1">
          <mxGeometry x="30" y="560" width="100" height="50" as="geometry" />
        </mxCell>
        <mxCell id="LJVNO1VC9h9MHGK4wsLx-41" style="edgeStyle=orthogonalEdgeStyle;rounded=0;orthogonalLoop=1;jettySize=auto;html=1;entryX=0.5;entryY=0;entryDx=0;entryDy=0;entryPerimeter=0;" edge="1" parent="WIyWlLk6GJQsqaUBKTNV-1" source="LJVNO1VC9h9MHGK4wsLx-30" target="LJVNO1VC9h9MHGK4wsLx-40">
          <mxGeometry relative="1" as="geometry" />
        </mxCell>
        <mxCell id="LJVNO1VC9h9MHGK4wsLx-52" style="edgeStyle=orthogonalEdgeStyle;rounded=0;orthogonalLoop=1;jettySize=auto;html=1;entryX=0.5;entryY=0;entryDx=0;entryDy=0;" edge="1" parent="WIyWlLk6GJQsqaUBKTNV-1" source="LJVNO1VC9h9MHGK4wsLx-43" target="LJVNO1VC9h9MHGK4wsLx-47">
          <mxGeometry relative="1" as="geometry" />
        </mxCell>
        <mxCell id="LJVNO1VC9h9MHGK4wsLx-54" value="Y" style="edgeLabel;html=1;align=center;verticalAlign=middle;resizable=0;points=[];" vertex="1" connectable="0" parent="LJVNO1VC9h9MHGK4wsLx-52">
          <mxGeometry x="0.2667" y="1" relative="1" as="geometry">
            <mxPoint as="offset" />
          </mxGeometry>
        </mxCell>
        <mxCell id="LJVNO1VC9h9MHGK4wsLx-59" value="N" style="edgeStyle=orthogonalEdgeStyle;rounded=0;orthogonalLoop=1;jettySize=auto;html=1;entryX=0;entryY=0.5;entryDx=0;entryDy=0;" edge="1" parent="WIyWlLk6GJQsqaUBKTNV-1" source="LJVNO1VC9h9MHGK4wsLx-43" target="LJVNO1VC9h9MHGK4wsLx-57">
          <mxGeometry relative="1" as="geometry" />
        </mxCell>
        <mxCell id="LJVNO1VC9h9MHGK4wsLx-43" value="&lt;div&gt;Does the R.&lt;/div&gt;&lt;div&gt;need auth?&lt;/div&gt;" style="strokeWidth=2;html=1;shape=mxgraph.flowchart.decision;whiteSpace=wrap;" vertex="1" parent="WIyWlLk6GJQsqaUBKTNV-1">
          <mxGeometry x="30" y="720" width="100" height="50" as="geometry" />
        </mxCell>
        <mxCell id="LJVNO1VC9h9MHGK4wsLx-44" value="Y" style="edgeStyle=orthogonalEdgeStyle;rounded=0;orthogonalLoop=1;jettySize=auto;html=1;" edge="1" parent="WIyWlLk6GJQsqaUBKTNV-1" source="LJVNO1VC9h9MHGK4wsLx-40">
          <mxGeometry x="-0.3447" relative="1" as="geometry">
            <mxPoint x="80" y="640" as="targetPoint" />
            <mxPoint as="offset" />
          </mxGeometry>
        </mxCell>
        <mxCell id="LJVNO1VC9h9MHGK4wsLx-78" style="edgeStyle=orthogonalEdgeStyle;rounded=0;orthogonalLoop=1;jettySize=auto;html=1;" edge="1" parent="WIyWlLk6GJQsqaUBKTNV-1" source="LJVNO1VC9h9MHGK4wsLx-45" target="LJVNO1VC9h9MHGK4wsLx-63">
          <mxGeometry relative="1" as="geometry" />
        </mxCell>
        <mxCell id="LJVNO1VC9h9MHGK4wsLx-45" value="&lt;div&gt;Discard the A.&lt;/div&gt;" style="rounded=1;whiteSpace=wrap;html=1;absoluteArcSize=1;arcSize=14;strokeWidth=2;" vertex="1" parent="WIyWlLk6GJQsqaUBKTNV-1">
          <mxGeometry x="160" y="560" width="100" height="50" as="geometry" />
        </mxCell>
        <mxCell id="LJVNO1VC9h9MHGK4wsLx-50" style="edgeStyle=orthogonalEdgeStyle;rounded=0;orthogonalLoop=1;jettySize=auto;html=1;entryX=0.5;entryY=0;entryDx=0;entryDy=0;" edge="1" parent="WIyWlLk6GJQsqaUBKTNV-1" source="LJVNO1VC9h9MHGK4wsLx-47" target="LJVNO1VC9h9MHGK4wsLx-48">
          <mxGeometry relative="1" as="geometry" />
        </mxCell>
        <mxCell id="LJVNO1VC9h9MHGK4wsLx-47" value="&lt;div&gt;Obtain the req&#39;d&lt;/div&gt;&lt;div&gt;Agent from A.&lt;/div&gt;" style="rounded=1;whiteSpace=wrap;html=1;absoluteArcSize=1;arcSize=14;strokeWidth=2;" vertex="1" parent="WIyWlLk6GJQsqaUBKTNV-1">
          <mxGeometry x="30" y="800" width="100" height="50" as="geometry" />
        </mxCell>
        <mxCell id="LJVNO1VC9h9MHGK4wsLx-51" style="edgeStyle=orthogonalEdgeStyle;rounded=0;orthogonalLoop=1;jettySize=auto;html=1;entryX=0.5;entryY=0;entryDx=0;entryDy=0;" edge="1" parent="WIyWlLk6GJQsqaUBKTNV-1" source="LJVNO1VC9h9MHGK4wsLx-48" target="LJVNO1VC9h9MHGK4wsLx-49">
          <mxGeometry relative="1" as="geometry" />
        </mxCell>
        <mxCell id="LJVNO1VC9h9MHGK4wsLx-48" value="&lt;div&gt;Look up authkey&lt;/div&gt;&lt;div&gt;by Agent&lt;/div&gt;" style="rounded=1;whiteSpace=wrap;html=1;absoluteArcSize=1;arcSize=14;strokeWidth=2;" vertex="1" parent="WIyWlLk6GJQsqaUBKTNV-1">
          <mxGeometry x="30" y="880" width="100" height="50" as="geometry" />
        </mxCell>
        <mxCell id="LJVNO1VC9h9MHGK4wsLx-60" style="edgeStyle=orthogonalEdgeStyle;rounded=0;orthogonalLoop=1;jettySize=auto;html=1;entryX=0.5;entryY=1;entryDx=0;entryDy=0;" edge="1" parent="WIyWlLk6GJQsqaUBKTNV-1" source="LJVNO1VC9h9MHGK4wsLx-49" target="LJVNO1VC9h9MHGK4wsLx-57">
          <mxGeometry relative="1" as="geometry" />
        </mxCell>
        <mxCell id="LJVNO1VC9h9MHGK4wsLx-49" value="&lt;div&gt;Add authkey&lt;/div&gt;&lt;div&gt;to Request&lt;/div&gt;" style="rounded=1;whiteSpace=wrap;html=1;absoluteArcSize=1;arcSize=14;strokeWidth=2;" vertex="1" parent="WIyWlLk6GJQsqaUBKTNV-1">
          <mxGeometry x="30" y="960" width="100" height="50" as="geometry" />
        </mxCell>
        <mxCell id="LJVNO1VC9h9MHGK4wsLx-55" value="&lt;div&gt;Make Request&lt;/div&gt;&lt;div&gt;from Action&lt;/div&gt;" style="rounded=1;whiteSpace=wrap;html=1;absoluteArcSize=1;arcSize=14;strokeWidth=2;" vertex="1" parent="WIyWlLk6GJQsqaUBKTNV-1">
          <mxGeometry x="30" y="640" width="100" height="50" as="geometry" />
        </mxCell>
        <mxCell id="LJVNO1VC9h9MHGK4wsLx-56" style="edgeStyle=orthogonalEdgeStyle;rounded=0;orthogonalLoop=1;jettySize=auto;html=1;entryX=0.5;entryY=0;entryDx=0;entryDy=0;entryPerimeter=0;" edge="1" parent="WIyWlLk6GJQsqaUBKTNV-1" source="LJVNO1VC9h9MHGK4wsLx-55" target="LJVNO1VC9h9MHGK4wsLx-43">
          <mxGeometry relative="1" as="geometry" />
        </mxCell>
        <mxCell id="LJVNO1VC9h9MHGK4wsLx-57" value="&lt;div&gt;Dispatch&lt;/div&gt;&lt;div&gt;Request to&lt;/div&gt;&lt;div&gt;ST-Server&lt;/div&gt;" style="rounded=1;whiteSpace=wrap;html=1;absoluteArcSize=1;arcSize=14;strokeWidth=2;" vertex="1" parent="WIyWlLk6GJQsqaUBKTNV-1">
          <mxGeometry x="290" y="720" width="100" height="50" as="geometry" />
        </mxCell>
        <mxCell id="LJVNO1VC9h9MHGK4wsLx-71" style="edgeStyle=orthogonalEdgeStyle;rounded=0;orthogonalLoop=1;jettySize=auto;html=1;entryX=0;entryY=0.5;entryDx=0;entryDy=0;" edge="1" parent="WIyWlLk6GJQsqaUBKTNV-1" source="LJVNO1VC9h9MHGK4wsLx-63" target="LJVNO1VC9h9MHGK4wsLx-66">
          <mxGeometry relative="1" as="geometry" />
        </mxCell>
        <mxCell id="LJVNO1VC9h9MHGK4wsLx-80" value="Y" style="edgeLabel;html=1;align=center;verticalAlign=middle;resizable=0;points=[];" vertex="1" connectable="0" parent="LJVNO1VC9h9MHGK4wsLx-71">
          <mxGeometry x="-0.7771" y="-1" relative="1" as="geometry">
            <mxPoint as="offset" />
          </mxGeometry>
        </mxCell>
        <mxCell id="LJVNO1VC9h9MHGK4wsLx-63" value="&lt;div&gt;Any replies&lt;/div&gt;&lt;div&gt;from ST-S?&lt;/div&gt;" style="strokeWidth=2;html=1;shape=mxgraph.flowchart.decision;whiteSpace=wrap;" vertex="1" parent="WIyWlLk6GJQsqaUBKTNV-1">
          <mxGeometry x="290" y="480" width="100" height="50" as="geometry" />
        </mxCell>
        <mxCell id="LJVNO1VC9h9MHGK4wsLx-64" style="edgeStyle=orthogonalEdgeStyle;rounded=0;orthogonalLoop=1;jettySize=auto;html=1;entryX=0;entryY=0.5;entryDx=0;entryDy=0;entryPerimeter=0;startArrow=classic;startFill=1;" edge="1" parent="WIyWlLk6GJQsqaUBKTNV-1" source="LJVNO1VC9h9MHGK4wsLx-27" target="LJVNO1VC9h9MHGK4wsLx-63">
          <mxGeometry relative="1" as="geometry" />
        </mxCell>
        <mxCell id="LJVNO1VC9h9MHGK4wsLx-79" value="N" style="edgeLabel;html=1;align=center;verticalAlign=middle;resizable=0;points=[];" vertex="1" connectable="0" parent="LJVNO1VC9h9MHGK4wsLx-64">
          <mxGeometry x="-0.2034" relative="1" as="geometry">
            <mxPoint as="offset" />
          </mxGeometry>
        </mxCell>
        <mxCell id="LJVNO1VC9h9MHGK4wsLx-65" style="edgeStyle=orthogonalEdgeStyle;rounded=0;orthogonalLoop=1;jettySize=auto;html=1;entryX=0.5;entryY=1;entryDx=0;entryDy=0;entryPerimeter=0;" edge="1" parent="WIyWlLk6GJQsqaUBKTNV-1" source="LJVNO1VC9h9MHGK4wsLx-57" target="LJVNO1VC9h9MHGK4wsLx-63">
          <mxGeometry relative="1" as="geometry" />
        </mxCell>
        <mxCell id="LJVNO1VC9h9MHGK4wsLx-66" value="&lt;div&gt;Ensure we know&lt;/div&gt;&lt;div&gt;which Action is&lt;/div&gt;&lt;div&gt;replied to&lt;/div&gt;" style="rounded=1;whiteSpace=wrap;html=1;absoluteArcSize=1;arcSize=14;strokeWidth=2;" vertex="1" parent="WIyWlLk6GJQsqaUBKTNV-1">
          <mxGeometry x="420" y="480" width="100" height="50" as="geometry" />
        </mxCell>
        <mxCell id="LJVNO1VC9h9MHGK4wsLx-68" value="&lt;div&gt;Did ST-S return&lt;/div&gt;&lt;div&gt;a server error?&lt;/div&gt;" style="strokeWidth=2;html=1;shape=mxgraph.flowchart.decision;whiteSpace=wrap;" vertex="1" parent="WIyWlLk6GJQsqaUBKTNV-1">
          <mxGeometry x="550" y="480" width="100" height="50" as="geometry" />
        </mxCell>
        <mxCell id="LJVNO1VC9h9MHGK4wsLx-75" value="N" style="edgeStyle=orthogonalEdgeStyle;rounded=0;orthogonalLoop=1;jettySize=auto;html=1;" edge="1" parent="WIyWlLk6GJQsqaUBKTNV-1" source="LJVNO1VC9h9MHGK4wsLx-69" target="LJVNO1VC9h9MHGK4wsLx-73">
          <mxGeometry relative="1" as="geometry" />
        </mxCell>
        <mxCell id="LJVNO1VC9h9MHGK4wsLx-69" value="&lt;div&gt;Did ST-S return&lt;/div&gt;&lt;div&gt;a game error?&lt;/div&gt;" style="strokeWidth=2;html=1;shape=mxgraph.flowchart.decision;whiteSpace=wrap;" vertex="1" parent="WIyWlLk6GJQsqaUBKTNV-1">
          <mxGeometry x="550" y="400" width="100" height="50" as="geometry" />
        </mxCell>
        <mxCell id="LJVNO1VC9h9MHGK4wsLx-70" value="N" style="edgeStyle=orthogonalEdgeStyle;rounded=0;orthogonalLoop=1;jettySize=auto;html=1;" edge="1" parent="WIyWlLk6GJQsqaUBKTNV-1" source="LJVNO1VC9h9MHGK4wsLx-68" target="LJVNO1VC9h9MHGK4wsLx-69">
          <mxGeometry relative="1" as="geometry" />
        </mxCell>
        <mxCell id="LJVNO1VC9h9MHGK4wsLx-72" style="edgeStyle=orthogonalEdgeStyle;rounded=0;orthogonalLoop=1;jettySize=auto;html=1;" edge="1" parent="WIyWlLk6GJQsqaUBKTNV-1" source="LJVNO1VC9h9MHGK4wsLx-66" target="LJVNO1VC9h9MHGK4wsLx-68">
          <mxGeometry relative="1" as="geometry" />
        </mxCell>
        <mxCell id="LJVNO1VC9h9MHGK4wsLx-76" style="edgeStyle=orthogonalEdgeStyle;rounded=0;orthogonalLoop=1;jettySize=auto;html=1;" edge="1" parent="WIyWlLk6GJQsqaUBKTNV-1" source="LJVNO1VC9h9MHGK4wsLx-73" target="LJVNO1VC9h9MHGK4wsLx-74">
          <mxGeometry relative="1" as="geometry" />
        </mxCell>
        <mxCell id="LJVNO1VC9h9MHGK4wsLx-73" value="&lt;div&gt;Parse Reply&lt;/div&gt;&lt;div&gt;into Update&lt;/div&gt;" style="rounded=1;whiteSpace=wrap;html=1;absoluteArcSize=1;arcSize=14;strokeWidth=2;" vertex="1" parent="WIyWlLk6GJQsqaUBKTNV-1">
          <mxGeometry x="420" y="400" width="100" height="50" as="geometry" />
        </mxCell>
        <mxCell id="LJVNO1VC9h9MHGK4wsLx-77" style="edgeStyle=orthogonalEdgeStyle;rounded=0;orthogonalLoop=1;jettySize=auto;html=1;" edge="1" parent="WIyWlLk6GJQsqaUBKTNV-1" source="LJVNO1VC9h9MHGK4wsLx-74" target="LJVNO1VC9h9MHGK4wsLx-27">
          <mxGeometry relative="1" as="geometry">
            <Array as="points">
              <mxPoint x="340" y="380" />
              <mxPoint x="80" y="380" />
            </Array>
          </mxGeometry>
        </mxCell>
        <mxCell id="LJVNO1VC9h9MHGK4wsLx-74" value="&lt;div&gt;Apply Update&lt;/div&gt;&lt;div&gt;to local state&lt;/div&gt;" style="rounded=1;whiteSpace=wrap;html=1;absoluteArcSize=1;arcSize=14;strokeWidth=2;" vertex="1" parent="WIyWlLk6GJQsqaUBKTNV-1">
          <mxGeometry x="290" y="400" width="100" height="50" as="geometry" />
        </mxCell>
        <mxCell id="LJVNO1VC9h9MHGK4wsLx-82" value="&lt;div&gt;User input&lt;/div&gt;&lt;div&gt;handler&lt;/div&gt;" style="ellipse;whiteSpace=wrap;html=1;" vertex="1" parent="WIyWlLk6GJQsqaUBKTNV-1">
          <mxGeometry x="-710" y="210" width="100" height="50" as="geometry" />
        </mxCell>
        <mxCell id="LJVNO1VC9h9MHGK4wsLx-83" value="Type" style="rounded=1;whiteSpace=wrap;html=1;" vertex="1" parent="WIyWlLk6GJQsqaUBKTNV-1">
          <mxGeometry x="-310" y="215" width="100" height="50" as="geometry" />
        </mxCell>
        <mxCell id="LJVNO1VC9h9MHGK4wsLx-89" value="Enum" style="swimlane;fontStyle=0;childLayout=stackLayout;horizontal=1;startSize=30;horizontalStack=0;resizeParent=1;resizeParentMax=0;resizeLast=0;collapsible=1;marginBottom=0;whiteSpace=wrap;html=1;" vertex="1" parent="WIyWlLk6GJQsqaUBKTNV-1">
          <mxGeometry x="-470" y="210" width="140" height="120" as="geometry" />
        </mxCell>
        <mxCell id="LJVNO1VC9h9MHGK4wsLx-90" value="Value 1" style="text;strokeColor=none;fillColor=none;align=left;verticalAlign=middle;spacingLeft=4;spacingRight=4;overflow=hidden;points=[[0,0.5],[1,0.5]];portConstraint=eastwest;rotatable=0;whiteSpace=wrap;html=1;" vertex="1" parent="LJVNO1VC9h9MHGK4wsLx-89">
          <mxGeometry y="30" width="140" height="30" as="geometry" />
        </mxCell>
        <mxCell id="LJVNO1VC9h9MHGK4wsLx-91" value="Value 2" style="text;strokeColor=none;fillColor=none;align=left;verticalAlign=middle;spacingLeft=4;spacingRight=4;overflow=hidden;points=[[0,0.5],[1,0.5]];portConstraint=eastwest;rotatable=0;whiteSpace=wrap;html=1;" vertex="1" parent="LJVNO1VC9h9MHGK4wsLx-89">
          <mxGeometry y="60" width="140" height="30" as="geometry" />
        </mxCell>
        <mxCell id="LJVNO1VC9h9MHGK4wsLx-92" value="Value 3" style="text;strokeColor=none;fillColor=none;align=left;verticalAlign=middle;spacingLeft=4;spacingRight=4;overflow=hidden;points=[[0,0.5],[1,0.5]];portConstraint=eastwest;rotatable=0;whiteSpace=wrap;html=1;" vertex="1" parent="LJVNO1VC9h9MHGK4wsLx-89">
          <mxGeometry y="90" width="140" height="30" as="geometry" />
        </mxCell>
        <mxCell id="LJVNO1VC9h9MHGK4wsLx-93" value="(Req. handler)" style="ellipse;whiteSpace=wrap;html=1;" vertex="1" parent="WIyWlLk6GJQsqaUBKTNV-1">
          <mxGeometry x="-710" y="280" width="100" height="50" as="geometry" />
        </mxCell>
        <mxCell id="LJVNO1VC9h9MHGK4wsLx-94" value="(db handler)" style="ellipse;whiteSpace=wrap;html=1;" vertex="1" parent="WIyWlLk6GJQsqaUBKTNV-1">
          <mxGeometry x="-710" y="350" width="100" height="50" as="geometry" />
        </mxCell>
        <mxCell id="LJVNO1VC9h9MHGK4wsLx-95" value="(Reply handler)" style="ellipse;whiteSpace=wrap;html=1;" vertex="1" parent="WIyWlLk6GJQsqaUBKTNV-1">
          <mxGeometry x="-710" y="420" width="100" height="50" as="geometry" />
        </mxCell>
      </root>
    </mxGraphModel>
  </diagram>
</mxfile>
